<?xml version="1.0" standalone="no"?>
<!DOCTYPE svg PUBLIC "-//W3C//DTD SVG 20010904//EN"
 "http://www.w3.org/TR/2001/REC-SVG-20010904/DTD/svg10.dtd">
<svg version="1.0" xmlns="http://www.w3.org/2000/svg"
 width="532.000000pt" height="422.000000pt" viewBox="0 0 532.000000 422.000000"
 preserveAspectRatio="xMidYMid meet">

<g transform="translate(0.000000,422.000000) scale(0.100000,-0.100000)"
fill="#000000" stroke="none">
<path d="M2657 3257 c-54 -48 -97 -102 -97 -120 0 -15 59 24 87 58 27 32 78
116 71 115 -2 -1 -29 -24 -61 -53z"/>
<path d="M3071 3270 c29 -54 102 -130 124 -130 27 0 -11 53 -84 118 l-65 57
25 -45z m89 -80 c0 -15 -5 -12 -26 11 -19 22 -19 22 4 10 12 -6 22 -16 22 -21z"/>
<path d="M2523 3190 c-38 -47 -48 -77 -33 -104 20 -39 60 -38 116 3 l48 36
-37 3 c-21 2 -45 -2 -53 -9 -22 -18 -27 -5 -14 34 8 21 9 40 4 49 -8 13 -13
11 -31 -12z m-2 -61 c-9 -22 -10 -22 -10 -3 -1 11 2 24 6 27 12 12 14 0 4 -24z"/>
<path d="M3215 3190 c-4 -19 -2 -36 5 -45 15 -18 3 -42 -13 -26 -15 15 -90 15
-81 0 3 -6 26 -23 50 -39 53 -34 87 -30 104 11 11 26 9 34 -20 79 -18 27 -34
50 -35 50 -2 0 -6 -14 -10 -30z m42 -72 c-3 -8 -6 -5 -6 6 -1 11 2 17 5 13 3
-3 4 -12 1 -19z"/>
<path d="M2855 3205 c-5 -2 -22 -6 -37 -9 -39 -9 -95 -61 -108 -102 -26 -77
15 -136 134 -196 99 -49 126 -73 126 -109 0 -66 -43 -109 -110 -109 -69 0
-110 45 -125 138 -11 68 -29 52 -21 -19 3 -34 6 -74 6 -88 0 -21 5 -26 28 -28
15 -1 54 -5 87 -8 85 -10 140 7 192 60 38 37 43 48 43 88 0 63 -25 101 -93
139 -155 88 -161 93 -170 124 -11 39 8 84 41 99 12 5 22 13 22 17 0 5 -1 8 -2
7 -2 0 -7 -2 -13 -4z"/>
<path d="M2924 3196 c60 -17 82 -43 98 -118 7 -32 16 -58 20 -58 4 0 8 40 8
88 l0 88 -37 0 c-21 0 -60 4 -88 7 l-50 7 49 -14z"/>
<path d="M2426 3121 c-33 -73 -34 -121 -3 -156 21 -25 25 -26 64 -16 36 10
148 90 138 99 -2 2 -24 0 -50 -4 -31 -4 -59 -17 -81 -37 -19 -16 -37 -27 -40
-24 -3 3 -1 29 5 59 11 55 11 138 0 138 -4 0 -18 -26 -33 -59z m10 -99 c-13
-12 -17 8 -9 44 l8 39 3 -39 c2 -21 1 -41 -2 -44z m144 4 c0 -6 -87 -56 -97
-56 -10 0 35 32 67 47 31 14 30 14 30 9z"/>
<path d="M3310 3165 c-1 -11 -3 -33 -5 -50 -2 -16 1 -52 7 -78 8 -36 7 -52 -1
-60 -9 -9 -11 -7 -5 8 4 11 4 17 -1 13 -4 -4 -21 3 -36 17 -26 21 -113 45
-124 33 -9 -8 102 -88 141 -102 l40 -14 24 35 c13 18 23 47 22 64 -1 37 -60
163 -62 134z m39 -133 c0 -13 -3 -20 -9 -17 -5 3 -9 27 -9 53 1 42 2 44 9 17
4 -16 8 -40 9 -53z m-84 -44 l20 -20 -30 16 c-16 8 -37 20 -45 26 -12 9 -10
10 10 5 14 -4 34 -16 45 -27z"/>
<path d="M2344 3025 c-5 -16 -8 -58 -8 -93 0 -55 4 -66 29 -92 16 -17 35 -30
42 -30 7 0 13 -8 13 -17 0 -10 3 -36 6 -58 l5 -40 -25 45 c-13 25 -46 65 -71
90 l-48 45 6 -38 c3 -21 17 -61 30 -91 21 -45 31 -55 73 -73 40 -17 52 -29 63
-58 7 -20 15 -34 18 -31 3 2 -1 21 -8 40 -13 35 -12 37 21 71 32 33 87 155 70
155 -5 0 -28 -15 -51 -33 -33 -25 -46 -43 -54 -77 l-11 -45 -8 50 c-7 42 -5
51 9 60 40 24 65 48 100 96 l37 52 -29 -7 c-53 -14 -77 -31 -100 -71 -12 -22
-23 -34 -23 -27 0 7 -4 10 -10 7 -6 -4 -10 6 -11 22 0 15 -13 62 -29 103 -27
72 -28 74 -36 45z m46 -155 c5 -10 10 -22 10 -27 -2 -23 -40 71 -45 108 -5 43
-5 43 10 -9 8 -29 19 -62 25 -72z m129 33 c-6 -10 -23 -27 -37 -37 -21 -15
-20 -12 7 17 38 41 47 46 30 20z m-138 -173 l32 -45 -32 30 c-18 17 -42 48
-52 70 l-20 40 20 -25 c11 -14 35 -45 52 -70z m119 21 c-36 -57 -49 -68 -24
-18 25 47 46 78 51 73 2 -2 -10 -27 -27 -55z"/>
<path d="M3387 2972 c-27 -76 -38 -154 -17 -122 5 8 17 40 26 70 23 77 25 80
20 33 -2 -24 -14 -64 -27 -90 l-23 -47 -12 29 c-10 25 -12 26 -16 10 -3 -16
-7 -12 -18 17 -14 38 -43 59 -104 74 l-29 7 36 -48 c21 -26 37 -51 37 -55 0
-4 18 -15 40 -26 30 -14 40 -25 41 -44 1 -19 2 -21 6 -6 3 10 23 35 44 56 41
39 45 55 40 150 -5 75 -15 73 -44 -8z m-102 -94 c38 -40 39 -40 7 -19 -26 19
-61 61 -49 61 1 0 21 -19 42 -42z"/>
<path d="M2465 3009 c-4 -6 -5 -12 -2 -15 2 -3 7 2 10 11 7 17 1 20 -8 4z"/>
<path d="M2431 2904 c0 -11 3 -14 6 -6 3 7 2 16 -1 19 -3 4 -6 -2 -5 -13z"/>
<path d="M3331 2904 c0 -11 3 -14 6 -6 3 7 2 16 -1 19 -3 4 -6 -2 -5 -13z"/>
<path d="M3430 2827 c-25 -27 -55 -68 -67 -90 -20 -38 -22 -39 -24 -17 l-1 25
-7 -25 c-7 -23 -8 -22 -15 15 -8 43 -36 79 -78 101 -15 8 -29 14 -31 14 -3 0
6 -28 18 -62 14 -39 35 -73 57 -93 l34 -32 -18 -43 c-10 -24 -16 -45 -14 -48
5 -4 36 64 36 79 0 5 21 14 46 20 51 13 72 39 100 121 26 80 16 90 -36 35z
m11 -44 c-11 -21 -36 -54 -57 -73 -33 -31 -31 -28 17 38 29 39 55 72 56 72 2
0 -5 -17 -16 -37z m-141 -65 c0 -15 -9 -7 -29 26 -12 18 -21 40 -21 47 1 14
50 -59 50 -73z"/>
<path d="M2551 2724 c-43 -35 -64 -79 -56 -113 9 -43 -19 -48 -58 -11 -34 31
-147 103 -154 97 -7 -8 52 -103 83 -134 29 -29 40 -33 87 -33 48 0 57 -4 87
-35 38 -39 36 -42 -17 -20 -20 9 -67 20 -104 25 -36 5 -75 12 -85 16 -36 11
71 -79 121 -102 43 -20 57 -22 88 -13 20 5 39 14 42 19 10 16 27 12 70 -15
l40 -25 -50 2 c-27 1 -86 -7 -129 -17 l-79 -18 35 -18 c19 -10 64 -23 98 -28
68 -11 97 -3 134 38 24 26 32 26 96 -2 l53 -24 -66 -31 c-68 -31 -76 -39 -56
-59 7 -7 29 2 75 33 36 24 72 44 79 44 7 0 43 -20 79 -44 46 -31 68 -40 75
-33 19 19 12 28 -54 58 -36 17 -65 32 -65 34 0 1 25 13 55 25 l55 22 34 -26
c19 -14 46 -30 60 -36 31 -11 108 1 169 28 l42 19 -80 18 c-44 10 -102 18
-130 17 l-50 -3 43 27 c41 24 45 25 75 11 18 -8 42 -18 54 -21 29 -9 105 30
163 84 44 41 45 41 15 35 -16 -4 -56 -11 -87 -16 -31 -5 -77 -18 -101 -28 -50
-22 -55 -15 -35 50 8 30 7 42 -10 76 -11 21 -27 45 -35 52 -13 10 -16 2 -21
-56 -4 -39 -2 -83 4 -103 14 -47 15 -43 -30 -69 -45 -25 -49 -21 -20 16 23 29
25 89 6 143 l-13 34 -28 -59 c-21 -44 -29 -76 -29 -119 l-1 -58 -70 -28 -70
-28 -50 20 c-27 11 -61 24 -73 29 -22 8 -23 13 -17 57 5 40 1 57 -28 121 l-35
74 -11 -52 c-17 -78 -14 -106 15 -140 30 -36 27 -38 -26 -11 -42 22 -46 32
-29 77 6 17 8 56 3 101 l-6 73 -28 -38 c-39 -53 -45 -85 -26 -124 9 -18 15
-34 13 -35 -2 -2 -19 12 -38 32 -28 29 -34 42 -33 77 2 40 30 124 40 115 2 -3
-5 -31 -16 -63 -24 -69 -22 -89 5 -49 16 25 49 154 40 162 -1 1 -17 -9 -34
-24z m-128 -142 c20 -14 36 -27 33 -29 -8 -8 -81 35 -106 63 l-25 28 30 -19
c17 -10 47 -30 68 -43z m186 -39 c-1 -57 -2 -62 -8 -31 -7 34 -4 98 5 98 2 0
3 -30 3 -67z m561 -30 c-6 -32 -8 -26 -8 32 0 53 2 62 8 38 4 -17 4 -49 0 -70z
m-85 20 c-11 -51 -28 -108 -36 -117 -5 -5 -4 6 1 25 5 19 14 53 20 77 12 46
24 58 15 15z m-371 -67 c8 -32 11 -55 7 -50 -13 15 -31 75 -30 103 1 31 3 25
23 -53z m-217 -16 c81 -17 84 -19 41 -19 -46 -1 -123 22 -143 42 -7 7 -6 8 2
3 7 -4 52 -15 100 -26z m828 -1 c-24 -11 -61 -18 -90 -18 -49 1 -49 1 30 18
103 23 108 23 60 0z m-655 -104 c-19 -7 -64 -13 -100 -13 l-65 1 85 12 c111
16 122 16 80 0z m535 -4 l60 -9 -65 0 c-36 0 -81 6 -100 13 l-35 14 40 -5 c22
-3 67 -9 100 -13z"/>
<path d="M3183 2734 c3 -10 9 -39 12 -64 4 -25 18 -62 31 -82 30 -47 30 -49
-1 -78 -14 -13 -25 -28 -25 -34 0 -5 15 4 33 22 29 28 40 32 87 32 49 0 56 3
89 38 34 36 84 122 76 130 -2 2 -21 -8 -44 -22 -22 -14 -45 -26 -50 -26 -5 0
-31 -20 -59 -45 -27 -24 -52 -41 -56 -38 -3 4 -3 21 0 39 7 40 -21 92 -68 125
-28 21 -30 21 -25 3z m53 -69 c7 -19 14 -42 13 -52 0 -19 -14 7 -29 60 -12 38
-2 34 16 -8z m188 -46 c-26 -28 -92 -69 -110 -69 -8 0 127 99 135 100 3 0 -8
-14 -25 -31z"/>
<path d="M1379 1961 c-34 -34 -38 -77 -11 -111 9 -12 44 -36 77 -53 49 -26 61
-37 63 -60 2 -17 -4 -37 -14 -48 -27 -30 7 -25 45 7 25 21 31 34 31 64 0 46
-21 69 -95 107 -27 14 -53 31 -57 37 -15 22 -8 55 14 70 l22 16 -23 0 c-12 0
-36 -13 -52 -29z"/>
<path d="M1512 1971 c12 -10 27 -36 34 -57 l12 -39 1 55 1 55 -35 2 -36 2 23
-18z"/>
<path d="M1864 1974 c13 -12 16 -41 16 -149 0 -117 -2 -135 -17 -144 -14 -8
-2 -10 47 -10 36 0 59 3 53 6 -10 3 -13 45 -13 159 l0 154 -51 0 c-46 0 -49
-1 -35 -16z"/>
<path d="M2743 1979 c15 -9 17 -27 17 -154 0 -80 -4 -145 -9 -145 -5 0 -19 8
-31 18 -35 28 -33 97 2 127 25 22 26 24 9 30 -77 24 -139 -101 -80 -161 27
-27 38 -29 144 -26 53 2 66 5 53 13 -16 9 -18 28 -18 159 l0 150 -52 0 c-41
-1 -49 -3 -35 -11z"/>
<path d="M3004 1974 c11 -10 16 -34 16 -70 l0 -55 -32 6 c-73 13 -128 -63 -98
-134 18 -45 61 -60 150 -51 41 4 69 8 63 9 -10 1 -13 39 -13 156 l0 155 -51 0
c-46 0 -49 -1 -35 -16z m14 -211 c-3 -83 -14 -97 -47 -64 -40 40 -18 141 30
141 18 0 20 -6 17 -77z"/>
<path d="M3658 1983 c9 -3 12 -44 12 -153 0 -109 -3 -150 -12 -153 -7 -3 8 -6
34 -6 l47 -1 3 160 3 160 -50 -1 c-27 0 -44 -3 -37 -6z"/>
<path d="M3775 1983 c50 -11 74 -27 95 -64 18 -33 22 -52 18 -103 -4 -73 -33
-121 -81 -136 -30 -9 -30 -10 12 -6 50 5 86 28 119 77 20 28 23 43 20 87 -3
32 -13 64 -25 80 -30 40 -91 72 -138 71 -22 -1 -31 -3 -20 -6z"/>
<path d="M2502 1948 c-21 -21 -14 -47 14 -54 33 -8 48 7 40 40 -7 28 -33 35
-54 14z"/>
<path d="M3154 1946 c-11 -28 1 -51 25 -51 32 0 49 28 32 49 -17 20 -50 21
-57 2z"/>
<path d="M1715 1823 c6 -40 6 -41 -30 -47 -21 -4 -48 -18 -62 -32 -20 -20 -22
-27 -13 -44 15 -28 58 -44 85 -31 11 5 15 10 8 10 -21 1 -34 37 -23 65 15 42
38 33 42 -16 2 -35 8 -45 30 -56 21 -10 33 -10 48 -2 23 12 27 32 5 24 -12 -5
-15 3 -16 37 -2 67 -12 92 -48 113 l-33 19 7 -40z"/>
<path d="M2053 1845 c-59 -25 -73 -102 -27 -149 34 -33 58 -35 48 -3 -12 34
-7 136 6 152 15 18 14 18 -27 0z"/>
<path d="M2111 1839 c6 -13 10 -52 7 -95 -2 -52 0 -74 8 -74 20 0 64 60 64 87
0 34 -28 79 -57 92 -33 15 -35 14 -22 -10z"/>
<path d="M2512 1853 c-29 -4 -31 -6 -17 -19 21 -21 21 -127 -1 -148 -14 -15
-10 -16 48 -16 35 0 58 4 51 8 -7 5 -13 40 -15 92 -3 92 -2 91 -66 83z"/>
<path d="M3165 1850 c-16 -4 -24 -8 -17 -9 8 -1 12 -24 12 -80 0 -54 -4 -81
-12 -84 -7 -3 16 -6 52 -6 49 0 61 2 48 10 -15 8 -18 25 -18 94 0 93 1 92 -65
75z"/>
<path d="M3310 1851 c-27 -5 -31 -8 -17 -13 14 -6 17 -20 17 -77 0 -56 -3 -72
-17 -80 -14 -8 -2 -10 47 -10 36 0 59 3 53 6 -9 3 -13 32 -13 94 0 98 4 93
-70 80z"/>
<path d="M3424 1850 c-31 -12 -37 -27 -11 -26 20 1 22 -4 25 -68 2 -49 -1 -72
-10 -77 -8 -5 13 -9 50 -9 58 0 62 1 48 16 -11 11 -16 35 -16 79 0 55 -3 66
-22 79 -25 18 -33 19 -64 6z"/>
<path d="M4018 1831 c-84 -75 -1 -195 110 -158 19 7 38 19 40 27 4 12 2 13 -9
3 -7 -7 -27 -13 -45 -13 -33 0 -47 11 -58 47 -6 18 -2 22 21 26 l28 4 -27 2
c-23 1 -28 6 -28 25 0 37 10 56 30 56 18 0 30 -26 30 -67 0 -19 6 -23 30 -23
40 0 40 31 1 71 -39 38 -80 39 -123 0z"/>
<path d="M4210 1850 c0 -3 9 -11 20 -18 11 -6 37 -46 58 -88 l38 -76 18 45
c16 43 16 46 -4 80 -12 20 -19 41 -16 46 4 5 -20 11 -54 13 -33 1 -60 1 -60
-2z"/>
<path d="M4390 1851 c-8 -3 -16 -14 -16 -24 -2 -18 -1 -18 20 0 11 10 22 19
24 19 11 6 -16 10 -28 5z"/>
<path d="M1624 1836 c-15 -12 -17 -19 -8 -32 22 -37 59 -23 48 19 -7 31 -13
33 -40 13z"/>
<path d="M2235 1838 c24 -14 36 -30 61 -77 10 -20 24 -44 32 -53 8 -9 11 -22
7 -27 -4 -7 15 -11 57 -10 49 0 58 3 43 10 -24 12 -108 146 -100 160 4 5 -21
9 -57 9 -52 -1 -60 -3 -43 -12z"/>
<path d="M2393 1835 c0 -9 4 -11 11 -6 6 4 18 11 26 14 9 3 5 6 -11 6 -16 1
-26 -4 -26 -14z"/>
<path d="M1351 1743 c1 -51 9 -67 38 -71 l24 -4 -22 27 c-11 15 -21 38 -21 51
0 12 -4 26 -10 29 -6 4 -10 -9 -9 -32z"/>
<path d="M2250 1684 l-25 -14 28 0 c17 0 27 5 27 15 0 8 -1 15 -2 14 -2 -1
-14 -7 -28 -15z"/>
<path d="M1428 1663 c7 -3 16 -2 19 1 4 3 -2 6 -13 5 -11 0 -14 -3 -6 -6z"/>
<path d="M2374 1545 c-10 -25 1 -50 24 -53 12 -2 22 1 22 7 0 6 -8 11 -17 12
-15 0 -15 2 2 9 l20 9 -20 1 c-20 1 -20 2 -1 9 19 7 19 8 -3 14 -14 3 -24 0
-27 -8z"/>
<path d="M2210 1520 c0 -33 19 -40 44 -15 20 21 10 45 -20 45 -20 0 -24 -5
-24 -30z m40 5 c0 -8 -7 -15 -15 -15 -8 0 -15 7 -15 15 0 8 7 15 15 15 8 0 15
-7 15 -15z"/>
<path d="M2546 1518 l16 -32 14 25 c18 32 17 49 -1 25 -13 -17 -15 -17 -21 -3
-3 10 -10 17 -15 17 -5 0 -2 -14 7 -32z"/>
<path d="M2702 1523 c2 -20 9 -29 26 -31 12 -2 22 1 22 7 0 6 -8 11 -17 12
-15 0 -15 2 2 9 l20 9 -20 1 -20 1 20 9 c18 8 17 9 -8 9 -25 1 -28 -2 -25 -26z"/>
<path d="M2863 1525 c1 -20 8 -31 20 -33 9 -2 17 1 17 7 0 6 -6 11 -14 11 -8
0 -17 10 -19 23 -4 15 -5 12 -4 -8z"/>
<path d="M3006 1535 c-7 -18 20 -46 39 -39 16 7 27 32 19 45 -9 15 -51 10 -58
-6z m44 -10 c0 -8 -7 -15 -15 -15 -8 0 -15 7 -15 15 0 8 7 15 15 15 8 0 15 -7
15 -15z"/>
<path d="M3180 1518 c1 -27 2 -30 11 -15 5 9 17 17 24 17 8 0 15 7 15 15 0 9
-9 15 -25 15 -22 0 -25 -4 -25 -32z m37 16 c-3 -3 -12 -4 -19 -1 -8 3 -5 6 6
6 11 1 17 -2 13 -5z"/>
<path d="M3340 1520 c0 -25 4 -30 25 -30 28 0 35 20 8 21 -15 0 -15 2 2 9 18
8 18 9 -5 10 l-25 2 25 8 25 8 -27 1 c-25 1 -28 -3 -28 -29z"/>
<path d="M3500 1524 c0 -21 3 -24 13 -15 10 8 17 7 25 -1 9 -9 12 -6 12 15 0
22 -5 27 -25 27 -20 0 -25 -5 -25 -26z m37 10 c-3 -3 -12 -4 -19 -1 -8 3 -5 6
6 6 11 1 17 -2 13 -5z"/>
</g>
</svg>
